<?xml version="1.0" standalone="no"?><!DOCTYPE svg PUBLIC "-//W3C//DTD SVG 1.1//EN" "http://www.w3.org/Graphics/SVG/1.1/DTD/svg11.dtd"><svg t="1603333561584" class="icon" viewBox="0 0 1024 1024" version="1.1" xmlns="http://www.w3.org/2000/svg" p-id="3581" xmlns:xlink="http://www.w3.org/1999/xlink" width="200" height="200"><defs><style type="text/css"></style></defs><path d="M651.946667 430.08l-249.173334-81.92c-10.24-3.413333-23.893333 3.413333-27.306666 13.653333-3.413333 10.24 3.413333 23.893333 13.653333 27.306667l249.173333 81.92h6.826667c10.24 0 17.066667-6.826667 20.48-13.653333 3.413333-10.24-3.413333-23.893333-13.653333-27.306667zM651.946667 512l-249.173334-81.92c-10.24-3.413333-23.893333 3.413333-27.306666 13.653333-3.413333 10.24 3.413333 23.893333 13.653333 27.306667l249.173333 81.92h6.826667c10.24 0 17.066667-6.826667 20.48-13.653333 3.413333-10.24-3.413333-23.893333-13.653333-27.306667zM651.946667 593.92L402.773333 512c-10.24-3.413333-23.893333 3.413333-27.306666 13.653333-3.413333 10.24 3.413333 23.893333 13.653333 27.306667l249.173333 81.92h6.826667c10.24 0 17.066667-6.826667 20.48-13.653333 3.413333-10.24-3.413333-23.893333-13.653333-27.306667zM651.946667 679.253333l-249.173334-81.92c-10.24-3.413333-23.893333 3.413333-27.306666 13.653334-3.413333 10.24 3.413333 23.893333 13.653333 27.306666l249.173333 81.92h6.826667c10.24 0 17.066667-6.826667 20.48-13.653333 3.413333-13.653333-3.413333-23.893333-13.653333-27.306667zM638.293333 761.173333l-17.066666-6.826666V750.933333l-116.053334-37.546666-98.986666-34.133334c-10.24-3.413333-23.893333 3.413333-27.306667 13.653334-3.413333 10.24 3.413333 23.893333 13.653333 27.306666l232.106667 81.92h6.826667c6.826667 0 17.066667-6.826667 20.48-13.653333 0-13.653333-3.413333-23.893333-13.653334-27.306667zM529.066667 802.133333l-102.4-40.96c-10.24-3.413333-23.893333 0-27.306667 10.24s0 23.893333 10.24 27.306667l102.4 40.96H522.24l6.826667 3.413333c10.24 3.413333 17.066667 17.066667 10.24 27.306667-3.413333 6.826667-10.24 13.653333-20.48 13.653333H512l-58.026667-23.893333 44.373334 133.12c3.413333 6.826667 10.24 13.653333 20.48 13.653333s17.066667-6.826667 20.48-13.653333l54.613333-160.426667-54.613333-20.48c-3.413333-6.826667-6.826667-10.24-10.24-10.24zM832.853333 146.773333h-10.24C798.72 92.16 682.666667 23.893333 546.133333 17.066667V68.266667c0 10.24-6.826667 17.066667-17.066666 17.066666S512 78.506667 512 68.266667V17.066667h-10.24c-136.533333 6.826667-259.413333 71.68-283.306667 129.706666h-27.306666c-10.24 0-20.48 10.24-20.48 20.48s10.24 20.48 20.48 20.48h225.28v81.92l-13.653334-3.413333c-10.24-3.413333-23.893333 3.413333-27.306666 13.653333-3.413333 10.24 3.413333 23.893333 13.653333 27.306667l249.173333 81.92h6.826667c10.24 0 17.066667-6.826667 20.48-13.653333 3.413333-10.24-3.413333-23.893333-13.653333-27.306667l-143.36-47.786667c-6.826667-6.826667-6.826667-13.653333-6.826667-20.48 3.413333-6.826667 10.24-13.653333 17.066667-13.653333L638.293333 307.2h6.826667c10.24 0 17.066667-6.826667 20.48-13.653333 3.413333-10.24-3.413333-23.893333-13.653333-27.306667l-27.306667-10.24v-68.266667h208.213333c10.24 0 20.48-10.24 20.48-20.48s-10.24-20.48-20.48-20.48z" fill="" p-id="3582"></path></svg>